<svg id="Laag_1" data-name="Laag 1" xmlns="http://www.w3.org/2000/svg" viewBox="0 0 500 500"><defs><style>.cls-1{fill:#001273;}</style></defs><path class="cls-1" d="M343.85,253.23,484.09,113a44.09,44.09,0,0,0,0-62.34L452.92,19.48a44.08,44.08,0,0,0-62.33,0L250.34,159.73,110.09,19.48a44.08,44.08,0,0,0-62.33,0L16.59,50.65a44.09,44.09,0,0,0,0,62.34L156.83,253.23,16.59,393.48a44.09,44.09,0,0,0,0,62.34L47.76,487a44.08,44.08,0,0,0,62.33,0L250.34,346.74,390.59,487a44.08,44.08,0,0,0,62.33,0l31.17-31.17a44.09,44.09,0,0,0,0-62.34Z"/></svg>