<svg xmlns="http://www.w3.org/2000/svg" width="30px" height="60px" viewBox="0 0 42.25 60.1"><defs><style>.cls-1{fill:#cae8d3;}.cls-2{fill:#345636;}</style></defs><g id="Layer_2" data-name="Layer 2"><g id="Layer_1-2" data-name="Layer 1"><path class="cls-1" d="M21.13,0A21.14,21.14,0,0,0,0,21.13,20.81,20.81,0,0,0,3.17,32.22l16.53,27a1.65,1.65,0,0,0,1.19.81,1.75,1.75,0,0,0,1.8-.84L39.26,31.94a20.86,20.86,0,0,0,3-10.81A21.14,21.14,0,0,0,21.13,0Zm0,31.69A10.57,10.57,0,1,1,31.69,21.13,10.55,10.55,0,0,1,21.13,31.69Z"/><path class="cls-2" d="M21.13,0V10.56a10.57,10.57,0,0,1,0,21.13v28.4a1.73,1.73,0,0,0,1.56-.86L39.26,31.94a20.86,20.86,0,0,0,3-10.81A21.14,21.14,0,0,0,21.13,0Z"/></g></g></svg>